{"title":"Kanal.2015.DVDRip.x264.Malayalam.ESubs-ViZNU [P2PDL]","uid":12944270,"size":612603963,"categoryP":"video","categoryS":"movies","magnet":"?xt=urn:btih:ff91cc5009584368fa2a7285b25ea155e62c9f42&amp;dn=Kanal.2015.DVDRip.x264.Malayalam.ESubs-ViZNU+%5BP2PDL%5D&amp;tr=udp%3A%2F%2Ftracker.leechers-paradise.org%3A6969&amp;tr=udp%3A%2F%2Fzer0day.ch%3A1337&amp;tr=udp%3A%2F%2Fopen.demonii.com%3A1337&amp;tr=udp%3A%2F%2Ftracker.coppersurfer.tk%3A6969&amp;tr=udp%3A%2F%2Fexodus.desync.com%3A6969","seeders":4,"leechers":1,"uploader":"VYTOP2PDL","files":6,"time":1449662645,"description":"Kanal.2015.DVDRip.x264.Malayalam.ESubs-ViZNU\r\n\r\n\r\nGenre: Drama, Thriller  \r\nIMDb: http://www.imdb.com/title/tt5032818/\r\n\r\n\r\nGeneral\r\nFormat                         : MPEG-4\r\nFile size                      : 577 MiB\r\nDuration                       : 2h 36mn\r\nOverall bit rate               : 515 Kbps\r\n\r\nVideo\r\nFormat                         : AVC\r\nBit rate                       : 480 Kbps\r\nWidth                          : 624 pixels\r\nHeight                         : 256 pixels\r\nDisplay aspect ratio           : 2.40:1\r\nFrame rate mode                : Constant\r\nFrame rate                     : 23.976 fps\r\nBit depth                      : 8 bits\r\nStream size                    : 537 MiB (93%)\r\nWriting library                : x264\r\n\r\nAudio\r\nFormat                         : AAC\r\nBit rate mode                  : Variable\r\nBit rate                       : 31.7 Kbps\r\nChannel(s)                     : 2 channels \r\nChannel positions              : Front: L R \r\nSampling rate                  : 48.0 KHz \r\nStream size                    : 35.5 MiB (6%)\r\nLanguage                       : English\r\n\r\nSubtitle                       : Yes (English)\r\n\r\nScreenshots: (Click the image to view full screen)\r\n \nhttp://ititli.com/Jg \nhttp://ititli.com/Jn \nhttp://ititli.com/Jw \nhttp://ititli.com/J2 \nhttp://ititli.com/J6 \nhttp://ititli.com/J8 \nhttp://ititli.com/Je \nhttp://ititli.com/Jj \nhttp://ititli.com/Jk\r\n\r\n----------------------------------------------------------------------------------------------------\r\n\r\n\r\nEncoder Notes: Looking For Early Access To Anything You Can Provide WEBDL, DVDScr, DVDR, BluRay,\r\nDirect Audio, Music Releases and Seedboxes. If You Got anything to offer please contact us.\r\n\r\nSupport us by donating BC - 1FgwdzPsd1y25Gea8wP1qni35uGCtmkRCD\r\n\r\nSend some love!\r\nFind us and join us!","torrent":{"xt":"urn:btih:ff91cc5009584368fa2a7285b25ea155e62c9f42","amp;dn":"Kanal.2015.DVDRip.x264.Malayalam.ESubs-ViZNU+%5BP2PDL%5D","amp;tr":["udp%3A%2F%2Ftracker.leechers-paradise.org%3A6969","udp%3A%2F%2Fzer0day.ch%3A1337","udp%3A%2F%2Fopen.demonii.com%3A1337","udp%3A%2F%2Ftracker.coppersurfer.tk%3A6969","udp%3A%2F%2Fexodus.desync.com%3A6969"],"infoHash":"ff91cc5009584368fa2a7285b25ea155e62c9f42","infoHashBuffer":{"type":"Buffer","data":[255,145,204,80,9,88,67,104,250,42,114,133,178,94,161,85,230,44,159,66]},"announce":[],"urlList":[]}}